<?xml version="1.0" standalone="no"?>
<!DOCTYPE svg PUBLIC "-//W3C//DTD SVG 20010904//EN"
 "http://www.w3.org/TR/2001/REC-SVG-20010904/DTD/svg10.dtd">
<svg version="1.0" xmlns="http://www.w3.org/2000/svg"
 width="300.000000pt" height="300.000000pt" viewBox="0 0 300.000000 300.000000"
 preserveAspectRatio="xMidYMid meet">
<metadata>
Created by potrace 1.11, written by Peter Selinger 2001-2013
</metadata>
<g transform="translate(0.000000,300.000000) scale(0.100000,-0.100000)"
fill="#000000" stroke="none">
<path d="M1399 2686 c-57 -41 -126 -89 -152 -108 -26 -18 -56 -40 -67 -48 -11
-8 -62 -44 -115 -80 -52 -36 -93 -69 -92 -74 2 -5 30 -28 63 -50 32 -23 120
-84 194 -137 74 -53 158 -112 185 -131 28 -19 127 -88 220 -154 94 -65 180
-126 192 -134 11 -8 93 -66 182 -128 l161 -113 1 -97 c1 -363 0 -545 -5 -550
-4 -3 -83 -5 -176 -5 l-170 1 -1 -31 c-1 -43 -1 -546 0 -574 l1 -21 490 0 490
1 -2 801 -3 801 -210 147 c-115 81 -214 151 -220 155 -5 5 -46 34 -90 64 -44
31 -224 157 -400 281 -176 124 -331 232 -346 241 -25 17 -27 16 -130 -57z"/>
<path d="M830 2285 c-41 -30 -103 -73 -136 -97 -34 -24 -151 -106 -260 -183
-109 -77 -202 -143 -207 -147 -8 -4 -14 -1377 -8 -1580 l1 -26 484 0 c354 0
486 3 488 12 4 9 3 589 -1 608 0 3 -72 6 -158 6 -87 0 -165 0 -174 1 -14 1
-16 37 -16 323 l0 323 304 214 c166 118 303 217 303 220 -1 6 -535 382 -541
380 -2 0 -38 -25 -79 -54z"/>
</g>
</svg>
